<svg width="256" height="256" viewBox="0 0 64 64" fill="none" xmlns="http://www.w3.org/2000/svg">
    <rect width="64" height="64" rx="14" fill="#263238"/>

    <path fill-rule="evenodd" clip-rule="evenodd" d="M32 6C26.6133 7.61333 17.3333 10.6667 13 12V28C13 40.3867 21.12 51.72 32 56C42.88 51.72 51 40.3867 51 28V12C46.6667 10.6667 37.3867 7.61333 32 6ZM27 24C27 21.2386 29.2386 19 32 19C34.7614 19 37 21.2386 37 24V27H38C39.1046 27 40 27.8954 40 29V41C40 42.1046 39.1046 43 38 43H26C24.8954 43 24 42.1046 24 41V29C24 27.8954 24.8954 27 26 27H27V24ZM35 27V24C35 22.3431 33.6569 21 32 21C30.3431 21 29 22.3431 29 24V27H35ZM32 38C33.1046 38 34 37.1046 34 36C34 34.8954 33.1046 34 32 34C30.8954 34 30 34.8954 30 36C30 37.1046 30.8954 38 32 38Z" fill="#007AFF"/>
</svg>
